<svg width="60" height="60" viewBox="0 0 60 60" fill="none" xmlns="http://www.w3.org/2000/svg">
<path d="M30.4416 60.0005C46.7665 60.0005 60.0005 46.7665 60.0005 30.4416C60.0005 14.1167 46.7665 0.882812 30.4416 0.882812C14.1167 0.882812 0.882812 14.1167 0.882812 30.4416C0.882812 46.7665 14.1167 60.0005 30.4416 60.0005Z" fill="#43A5FF"/>
<path fill-rule="evenodd" clip-rule="evenodd" d="M14.2624 30.1301C22.8794 26.3758 28.6254 23.9008 31.5005 22.705C39.7093 19.2906 41.415 18.6975 42.5268 18.6779C42.7713 18.6736 43.318 18.7342 43.6722 19.0216C43.9712 19.2643 44.0535 19.592 44.0929 19.8221C44.1322 20.0522 44.1813 20.5762 44.1423 20.9857C43.6974 25.6597 41.7726 37.0021 40.7934 42.237C40.3791 44.4521 39.5632 45.1948 38.7733 45.2675C37.0568 45.4254 35.7533 44.1331 34.0908 43.0432C31.4892 41.3379 30.0195 40.2763 27.4942 38.6122C24.5759 36.689 26.4677 35.632 28.1309 33.9046C28.5662 33.4525 36.1293 26.5733 36.2756 25.9492C36.294 25.8712 36.3109 25.5802 36.1381 25.4266C35.9653 25.273 35.7102 25.3255 35.5261 25.3673C35.2652 25.4265 31.1092 28.1735 23.058 33.6083C21.8784 34.4183 20.8098 34.813 19.8525 34.7923C18.7971 34.7695 16.7669 34.1956 15.2577 33.705C13.4066 33.1033 11.9353 32.7851 12.0634 31.7632C12.1302 31.2309 12.8632 30.6866 14.2624 30.1301Z" fill="white"/>
</svg>
